<?xml version="1.0" encoding="UTF-8" standalone="no"?>
<!-- Created with Inkscape (http://www.inkscape.org/) -->

<svg
   version="1.1"
   id="svg1"
   width="2016"
   height="1142.6667"
   viewBox="0 0 2016 1142.6667"
   sodipodi:docname="trouverunefresque.png"
   xml:space="preserve"
   inkscape:version="1.4 (e7c3feb100, 2024-10-09)"
   inkscape:dataloss="true"
   inkscape:export-filename="trouverunefresque.png"
   inkscape:export-xdpi="96"
   inkscape:export-ydpi="96"
   xmlns:inkscape="http://www.inkscape.org/namespaces/inkscape"
   xmlns:sodipodi="http://sodipodi.sourceforge.net/DTD/sodipodi-0.dtd"
   xmlns="http://www.w3.org/2000/svg"
   xmlns:svg="http://www.w3.org/2000/svg"><defs
     id="defs1"><style
       id="style1">
      .cls-1 {
        fill: #fa6551;
      }

      .cls-2 {
        fill: #9e93c8;
      }

      .cls-3 {
        fill: #16a2b5;
      }

      .cls-4 {
        fill: #ffae31;
      }
    </style></defs><sodipodi:namedview
     id="namedview1"
     pagecolor="#ffffff"
     bordercolor="#000000"
     borderopacity="0.25"
     inkscape:showpageshadow="2"
     inkscape:pageopacity="0.0"
     inkscape:pagecheckerboard="0"
     inkscape:deskcolor="#d1d1d1"
     inkscape:export-bgcolor="#ffffffff"
     inkscape:zoom="0.30772314"
     inkscape:cx="944.0304"
     inkscape:cy="545.94529"
     inkscape:window-width="1728"
     inkscape:window-height="1022"
     inkscape:window-x="0"
     inkscape:window-y="0"
     inkscape:window-maximized="1"
     inkscape:current-layer="g1"><inkscape:page
       x="0"
       y="0"
       width="2016"
       height="1142.6667"
       id="page2"
       margin="0"
       bleed="0" /></sodipodi:namedview><g
     inkscape:groupmode="layer"
     inkscape:label="Image"
     id="g1"><g
       id="g6"
       transform="matrix(5.1416399,0,0,5.1416399,368.57271,197.16478)"><g
         id="g2"><path
           class="cls-3"
           d="M 98.5,35.88 C 98.45,35.08 98.21,34.5 97.81,34.14 97.4,33.78 96.8,33.63 96,33.69 l -1.02,0.07 0.68,10.05 1.02,-0.07 c 0.8,-0.05 1.38,-0.29 1.73,-0.69 0.36,-0.41 0.51,-1.01 0.45,-1.81 z"
           id="path1" /><path
           class="cls-3"
           d="M 137.07,31.59 C 121.6,6.35 81.23,8.11 58.88,9.03 41.66,9.74 3.54,11.44 0.23,41.66 c -2.14,19.55 10.92,24.73 22.68,25.76 20.55,1.8 42.78,1.45 63.39,1.38 15.27,-0.05 32.26,2.43 46.35,-6.73 9.7,-6.31 11.06,-19.65 4.42,-30.48 z M 48.22,44.43 c -0.27,0.3 -0.67,0.47 -1.2,0.5 l -6.3,0.43 0.46,6.79 -5.96,0.4 -1.31,-19.33 14.19,-0.96 0.31,4.53 -8.23,0.56 0.24,3.48 6.3,-0.43 c 0.53,-0.04 0.95,0.08 1.26,0.34 0.3,0.26 0.47,0.65 0.51,1.18 l 0.09,1.27 c 0.04,0.52 -0.08,0.94 -0.35,1.24 z m 4.56,6.94 -0.28,-4.14 4.36,-0.29 -0.75,-11.05 -4.36,0.29 -0.28,-4.14 14.69,-0.99 0.28,4.14 -4.36,0.29 0.75,11.05 4.36,-0.29 0.28,4.14 z m 27.4,-1.85 -4.46,-10.2 0.71,10.45 -5.41,0.37 -1.31,-19.33 6.13,-0.42 4.46,10.2 L 79.59,30.14 85,29.77 86.31,49.1 Z m 24,-5.78 c -0.56,1.41 -1.44,2.5 -2.64,3.29 -1.2,0.78 -2.7,1.24 -4.5,1.36 l -6.93,0.47 -1.31,-19.33 6.93,-0.47 c 1.79,-0.12 3.34,0.13 4.64,0.74 1.3,0.62 2.32,1.58 3.06,2.9 0.74,1.32 1.18,2.95 1.31,4.9 l 0.07,1.1 c 0.13,1.95 -0.08,3.63 -0.64,5.04 z"
           id="path2" /></g><g
         id="g3"><polygon
           class="cls-4"
           points="34.99,94.53 33.39,87.71 32.72,94.68 "
           id="polygon2" /><path
           class="cls-4"
           d="m 55.65,78.15 c -4.69,-5.01 -19.15,-5.4 -24.9,-4.8 -7.73,0.8 -18.95,4.98 -22.02,17.23 -5,19.96 18.74,22.65 26.75,22.04 6.44,-0.49 17.02,-4.77 21.51,-12.16 3.02,-4.97 2.35,-18.35 -1.35,-22.31 z m -18.83,24.25 -0.84,-3.61 -3.67,0.25 -0.35,3.69 -5.77,0.39 2.39,-19.58 9.17,-0.62 5.01,19.08 z"
           id="path3" /></g><g
         id="g5"><path
           class="cls-2"
           d="m 99.8,107.99 -2.01,-0.21 -0.37,3.47 2.01,0.21 c 0.55,0.06 0.99,-0.05 1.31,-0.32 0.33,-0.27 0.52,-0.68 0.58,-1.23 0.06,-0.55 -0.04,-0.99 -0.31,-1.33 -0.26,-0.33 -0.67,-0.53 -1.22,-0.59 z"
           id="path4" /><path
           class="cls-2"
           d="M 175.97,117.68 C 163.31,83.03 72.84,70.84 62.14,106.95 c -7.66,25.86 33.91,35.73 59.98,38.06 24.63,2.2 63.29,-1.5 53.85,-27.33 z m -87.41,-10.77 -8.2,-0.86 -0.37,3.47 6.28,0.66 c 0.53,0.06 0.93,0.24 1.18,0.55 0.26,0.31 0.36,0.73 0.3,1.25 l -0.13,1.27 c -0.05,0.52 -0.24,0.91 -0.55,1.16 -0.31,0.25 -0.74,0.35 -1.27,0.29 l -6.28,-0.66 -0.71,6.77 -5.95,-0.63 2.03,-19.27 14.15,1.49 z m 18.65,3.61 c -0.15,1.42 -0.62,2.55 -1.41,3.39 -0.79,0.84 -1.87,1.36 -3.24,1.57 0.62,0.13 1.11,0.36 1.44,0.69 0.34,0.33 0.56,0.77 0.67,1.32 l 1.16,6.16 -6.08,-0.64 -0.99,-6.17 c -0.06,-0.38 -0.19,-0.66 -0.39,-0.86 -0.2,-0.2 -0.48,-0.32 -0.85,-0.35 l -0.55,-0.06 -0.75,7.07 -5.89,-0.62 2.03,-19.27 8.42,0.89 c 2.29,0.24 3.98,0.95 5.08,2.14 1.1,1.18 1.55,2.77 1.34,4.75 z m 17.97,0.26 -8.37,-0.88 -0.29,2.72 5.06,0.53 c 0.53,0.06 0.93,0.24 1.18,0.55 0.25,0.31 0.36,0.73 0.3,1.25 l -0.13,1.21 c -0.05,0.52 -0.24,0.91 -0.55,1.16 -0.31,0.25 -0.74,0.35 -1.27,0.29 l -5.06,-0.53 -0.32,3.06 8.42,0.89 -0.48,4.51 -14.37,-1.51 2.03,-19.27 14.31,1.51 -0.47,4.52 z m 18.1,1.43 c -0.07,0.71 -0.35,1.23 -0.83,1.56 -0.48,0.33 -1.13,0.46 -1.96,0.37 -0.64,-0.07 -1.17,-0.24 -1.57,-0.51 -0.41,-0.27 -0.73,-0.65 -0.98,-1.13 -0.21,-0.4 -0.49,-0.7 -0.84,-0.9 -0.36,-0.2 -0.83,-0.33 -1.44,-0.4 -0.68,-0.07 -1.22,0 -1.62,0.22 -0.4,0.22 -0.63,0.56 -0.68,1.01 -0.07,0.68 0.3,1.15 1.13,1.4 l 3.99,1.2 c 1.64,0.5 2.81,1.27 3.51,2.32 0.71,1.05 0.97,2.4 0.79,4.06 -0.22,2.08 -1.04,3.61 -2.45,4.58 -1.42,0.97 -3.34,1.33 -5.77,1.07 -2.37,-0.25 -4.16,-0.98 -5.38,-2.18 -1.22,-1.2 -1.81,-2.82 -1.75,-4.83 l 4.96,0.52 c 0.18,0.7 0.48,1.24 0.92,1.6 0.44,0.36 1.04,0.58 1.81,0.67 0.78,0.08 1.39,0.01 1.84,-0.21 0.45,-0.22 0.7,-0.58 0.75,-1.08 0.07,-0.68 -0.31,-1.15 -1.13,-1.4 l -3.99,-1.2 c -1.63,-0.49 -2.79,-1.26 -3.51,-2.32 -0.71,-1.06 -0.97,-2.42 -0.8,-4.09 0.14,-1.34 0.55,-2.45 1.23,-3.34 0.68,-0.89 1.6,-1.52 2.77,-1.89 1.17,-0.37 2.54,-0.48 4.13,-0.31 1.39,0.15 2.62,0.46 3.68,0.94 1.06,0.48 1.86,1.08 2.41,1.79 0.3,0.38 0.52,0.77 0.66,1.2 0.14,0.42 0.18,0.85 0.14,1.28 z m 18.23,17.31 -6.17,-0.65 -1.72,-7.61 -1.04,1.33 c -0.23,0.28 -0.4,0.57 -0.52,0.86 -0.12,0.29 -0.2,0.61 -0.23,0.96 l -0.43,4.05 -5.95,-0.63 2.03,-19.27 5.95,0.63 -0.76,7.23 c 0.12,-0.29 0.35,-0.67 0.71,-1.14 l 4.38,-5.63 5.62,0.59 -4.99,6.2 3.13,13.09 z"
           id="path5" /></g><path
         class="cls-1"
         d="M 233.8,15.25 C 217.23,0.01 187.78,-5.33 167.93,6.28 c -10.03,5.87 -16.77,16 -19.38,27.28 -3.41,14.72 0.5,29.44 3.77,43.75 0.62,2.74 1.29,6.97 2.16,9.45 0.19,0.54 0.45,1.24 1.11,1.25 4.8,-1.19 9.3,-3.54 14.08,-4.9 22.62,11.38 51.85,10.9 69.3,-9.16 15.54,-17.87 11.56,-43.3 -5.17,-58.69 z m -43.07,18.26 c -5.72,-2.79 -9.84,8.18 -6.08,11.13 1.81,1.43 3.31,0.94 5.36,0.54 0.69,0.28 -1.16,2.37 -1.46,2.68 -2.74,2.77 -7.78,2.62 -10.54,-0.06 -7.32,-7.1 0.34,-22.45 9.98,-18.27 1.7,0.74 3.89,2.91 4.06,4.79 -0.6,-0.04 -0.87,-0.6 -1.32,-0.82 z m 36.33,12.39 c -6.87,-6.23 -13.58,9.37 -5.45,11.01 1.12,0.23 2.17,-0.15 3.26,0 -2.81,5.39 -9.85,5.63 -13.19,0.46 -5.51,-8.52 3.43,-21.77 12.86,-15.49 1.11,0.74 2.77,2.6 2.51,4.01 z"
         id="path6" /></g></g></svg>
